<?xml version="1.0" encoding="UTF-8" standalone="no"?>
<svg width="512px" height="512px" viewBox="0 0 512 512" version="1.1" xmlns="http://www.w3.org/2000/svg" xmlns:xlink="http://www.w3.org/1999/xlink" xmlns:sketch="http://www.bohemiancoding.com/sketch/ns">
    <title>512</title>
    <description>Created with Sketch (http://www.bohemiancoding.com/sketch)</description>
    <defs></defs>
    <g id="Page-1" stroke="none" stroke-width="1" fill="none" fill-rule="evenodd" sketch:type="MSPage">
        <g id="512" sketch:type="MSArtboardGroup" fill="#FFFFFF">
            <g id="Cargosafe" sketch:type="MSLayerGroup" transform="translate(0.000000, 17.000000)">
                <text sketch:type="MSTextLayer" font-family="Signika" font-size="82.28" font-weight="normal" sketch:alignment="middle">
                    <tspan x="79.87966" y="456">Cargosafe</tspan>
                </text>
                <path d="M73,37.8736667 L73,333.126333 C73,354.043382 89.9204917,371 110.771581,371 L405.228419,371 C426.089087,371 443,354.033777 443,333.126333 L443,37.8736667 C443,16.9566182 426.079508,0 405.228419,0 L110.771581,0 C89.910913,0 73,16.9662228 73,37.8736667 Z M102,41.3013229 L102,205.698677 C102,214.149364 108.748431,221 117.078972,221 L397.921028,221 C406.248914,221 413,214.145682 413,205.698677 L413,41.3013229 C413,32.8506356 406.251569,26 397.921028,26 L117.078972,26 C108.751086,26 102,32.8543183 102,41.3013229 Z M413,311.5 C413,291.341606 396.658394,275 376.5,275 C356.341606,275 340,291.341606 340,311.5 C340,331.658394 356.341606,348 376.5,348 C396.658394,348 413,331.658394 413,311.5 Z M175,311.5 C175,291.341606 158.658394,275 138.5,275 C118.341606,275 102,291.341606 102,311.5 C102,331.658394 118.341606,348 138.5,348 C158.658394,348 175,331.658394 175,311.5 Z M224.325,82.5 C224.325,64.5456731 238.767187,49.9230769 256.5,49.9230769 C274.232813,49.9230769 288.675,64.5456731 288.675,82.5 L288.675,85.4615385 L294.525,85.4615385 L294.525,82.5 C294.525,61.2509615 277.486875,44 256.5,44 C235.476562,44 218.475,61.2509615 218.475,82.5 L218.475,109.153846 L198,109.153846 L198,198 L315,198 L315,109.153846 L224.325,109.153846 L224.325,82.5 Z" id="Logo" sketch:type="MSShapeGroup"></path>
            </g>
        </g>
    </g>
</svg>