<?xml version="1.0" encoding="UTF-8" standalone="no"?>
<svg width="512px" height="640px" viewBox="0 0 512 640" version="1.1" xmlns="http://www.w3.org/2000/svg" xmlns:xlink="http://www.w3.org/1999/xlink" xmlns:sketch="http://www.bohemiancoding.com/sketch/ns">
    <title>512</title>
    <description>Created with Sketch (http://www.bohemiancoding.com/sketch)</description>
    <defs></defs>
    <g id="Page-1" stroke="none" stroke-width="1" fill="none" fill-rule="evenodd" sketch:type="MSPage">
        <g id="512" sketch:type="MSArtboardGroup">
            <g id="Cargosafe" sketch:type="MSLayerGroup" transform="translate(1.000000, 2.000000)">
                <path d="M-1.42108547e-14,51.8593604 L-1.42108547e-14,456.14064 C-1.42108547e-14,484.781773 23.32284,508 52.0635311,508 L457.936469,508 C486.690363,508 510,484.768622 510,456.14064 L510,51.8593604 C510,23.2182265 486.67716,0 457.936469,0 L52.0635311,0 C23.3096369,0 -1.42108547e-14,23.2313779 -1.42108547e-14,51.8593604 Z M40.2366864,56.9510422 L40.2366864,282.048958 C40.2366864,293.619899 49.5352149,303 61.0137017,303 L447.980381,303 C459.45521,303 468.757396,293.614856 468.757396,282.048958 L468.757396,56.9510422 C468.757396,45.3801011 459.458868,36 447.980381,36 L61.0137017,36 C49.538873,36 40.2366864,45.3851436 40.2366864,56.9510422 Z M468.757396,427 C468.757396,399.385761 446.239175,377 418.461538,377 C390.683902,377 368.16568,399.385761 368.16568,427 C368.16568,454.614239 390.683902,477 418.461538,477 C446.239175,477 468.757396,454.614239 468.757396,427 Z M140.828402,427 C140.828402,399.385761 118.310181,377 90.5325444,377 C62.7549077,377 40.2366864,399.385761 40.2366864,427 C40.2366864,454.614239 62.7549077,477 90.5325444,477 C118.310181,477 140.828402,454.614239 140.828402,427 Z M208.224852,112.75 C208.224852,88.1502404 228.091716,68.1153846 252.485207,68.1153846 C276.878698,68.1153846 296.745562,88.1502404 296.745562,112.75 L296.745562,116.807692 L304.792899,116.807692 L304.792899,112.75 C304.792899,83.6360577 281.35503,60 252.485207,60 C223.565089,60 200.177515,83.6360577 200.177515,112.75 L200.177515,149.269231 L172.011834,149.269231 L172.011834,271 L332.95858,271 L332.95858,149.269231 L208.224852,149.269231 L208.224852,112.75 Z" id="Logo" fill="#222222" sketch:type="MSShapeGroup"></path>
                <path d="M40.28,625.584 C28.928,625.584 19.864,617.4 19.864,604.2 C19.864,591.792 27.608,582.816 40.28,582.816 C45.912,582.816 51.104,585.104 54.8,588.8 L62.016,581.584 C56.472,575.952 48.816,572.52 40.28,572.52 C22.24,572.52 9.392,585.632 9.392,604.2 C9.392,623.56 23.296,635.88 40.28,635.88 C48.816,635.88 56.472,632.448 62.016,626.904 L54.8,619.6 C51.104,623.296 45.912,625.584 40.28,625.584 Z M103.728,635 L114.816,635 L90.176,571.64 L65.624,635 L76.712,635 L79.352,627.872 L101,627.872 L103.728,635 Z M90.176,597.6 L97.656,618.984 L82.696,618.984 L90.176,597.6 Z M152.128,635 L163.48,635 L150.896,607.72 C156.44,605.696 162.776,601.296 162.776,591.352 C162.776,573.4 142.184,573.4 142.184,573.4 L121.68,573.4 L121.68,635 L131.976,635 L131.976,609.304 L140.336,609.304 L152.128,635 Z M131.976,583.696 L142.184,583.696 C142.184,583.696 152.48,583.696 152.48,591.352 C152.48,599.096 142.184,599.096 142.184,599.096 L131.976,599.096 L131.976,583.696 Z M202.464,599.976 L202.464,609.04 L218.832,609.04 L218.832,618.632 C215.048,622.944 209.592,625.584 203.432,625.584 C192.08,625.584 182.928,619.248 182.928,604.2 C182.928,590.736 192.08,582.816 203.432,582.816 C209.064,582.816 214.256,585.104 217.952,588.8 L225.168,581.584 C219.624,575.952 211.968,572.52 203.432,572.52 C186.448,572.52 172.632,585.896 172.632,604.2 C172.632,624.352 185.568,635.88 202.112,635.88 C209.416,635.88 214.608,634.12 219.624,629.456 L220.152,635.088 L229.128,635.088 L229.128,599.976 L202.464,599.976 Z M270.488,572.608 C229.92,572.608 229.832,635.792 270.488,635.792 C310.968,635.792 310.88,572.608 270.488,572.608 Z M270.488,625.848 C243.824,625.848 243.912,582.64 270.488,582.64 C297.152,582.64 297.152,625.848 270.488,625.848 Z M329.712,635.88 C339.656,635.88 348.896,629.544 348.896,617.752 C348.896,610.448 345.376,604.2 338.864,601.208 C334.464,599.184 330.152,599.184 329.712,599.184 C325.136,599.184 320.736,596.456 320.736,591.352 C320.736,585.632 324.872,582.816 329.712,582.816 C334.376,582.816 338.336,585.104 338.512,590.208 L348.72,590.208 C348.544,579.736 340.36,572.52 329.712,572.52 C319.768,572.52 310.44,579.648 310.44,591.352 C310.44,598.656 314.048,604.112 320.472,607.104 C324.96,609.128 329.184,609.128 329.712,609.128 C333.848,609.304 338.688,612.56 338.688,617.752 C338.688,622.592 334.464,625.584 329.712,625.584 C325.136,625.584 320.912,623.032 320.736,617.928 L310.44,617.928 C310.616,629.456 319.064,635.616 329.712,635.88 Z M391.576,635 L402.664,635 L378.024,571.64 L353.472,635 L364.56,635 L367.2,627.872 L388.848,627.872 L391.576,635 Z M378.024,597.6 L385.504,618.984 L370.544,618.984 L378.024,597.6 Z M450.712,583.696 L450.712,573.4 L409.616,573.4 L409.616,635 L419.912,635 L419.912,609.304 L445.52,609.304 L445.52,599.096 L419.912,599.096 L419.912,583.696 L450.712,583.696 Z M501.752,583.696 L501.752,573.4 L460.656,573.4 L460.656,635 L501.752,635 L501.752,624.704 L470.952,624.704 L470.952,609.304 L496.56,609.304 L496.56,599.096 L470.952,599.096 L470.952,583.696 L501.752,583.696 Z" fill="#333333" sketch:type="MSShapeGroup"></path>
            </g>
        </g>
    </g>
</svg>