<?xml version="1.0" encoding="UTF-8" standalone="no"?>
<svg width="512px" height="640px" viewBox="0 0 512 640" version="1.1" xmlns="http://www.w3.org/2000/svg" xmlns:xlink="http://www.w3.org/1999/xlink" xmlns:sketch="http://www.bohemiancoding.com/sketch/ns">
    <title>512</title>
    <description>Created with Sketch (http://www.bohemiancoding.com/sketch)</description>
    <defs></defs>
    <g id="Page-1" stroke="none" stroke-width="1" fill="none" fill-rule="evenodd" sketch:type="MSPage">
        <g id="512" sketch:type="MSArtboardGroup" fill="#FFFFFF">
            <g id="Cargosafe" sketch:type="MSLayerGroup" transform="translate(0.000000, 2.000000)">
                <text sketch:type="MSTextLayer" font-family="Baron Neue" font-size="88" font-weight="normal" sketch:alignment="middle">
                    <tspan x="5.552" y="635">Cargosafe</tspan>
                </text>
                <path d="M1,51.8593604 L1,456.14064 C1,484.781773 24.32284,508 53.0635311,508 L458.936469,508 C487.690363,508 511,484.768622 511,456.14064 L511,51.8593604 C511,23.2182265 487.67716,0 458.936469,0 L53.0635311,0 C24.3096369,0 1,23.2313779 1,51.8593604 Z M41.2366864,56.9510422 L41.2366864,282.048958 C41.2366864,293.619899 50.5352149,303 62.0137017,303 L448.980381,303 C460.45521,303 469.757396,293.614856 469.757396,282.048958 L469.757396,56.9510422 C469.757396,45.3801011 460.458868,36 448.980381,36 L62.0137017,36 C50.538873,36 41.2366864,45.3851436 41.2366864,56.9510422 Z M469.757396,427 C469.757396,399.385761 447.239175,377 419.461538,377 C391.683902,377 369.16568,399.385761 369.16568,427 C369.16568,454.614239 391.683902,477 419.461538,477 C447.239175,477 469.757396,454.614239 469.757396,427 Z M141.828402,427 C141.828402,399.385761 119.310181,377 91.5325444,377 C63.7549077,377 41.2366864,399.385761 41.2366864,427 C41.2366864,454.614239 63.7549077,477 91.5325444,477 C119.310181,477 141.828402,454.614239 141.828402,427 Z M209.224852,112.75 C209.224852,88.1502404 229.091716,68.1153846 253.485207,68.1153846 C277.878698,68.1153846 297.745562,88.1502404 297.745562,112.75 L297.745562,116.807692 L305.792899,116.807692 L305.792899,112.75 C305.792899,83.6360577 282.35503,60 253.485207,60 C224.565089,60 201.177515,83.6360577 201.177515,112.75 L201.177515,149.269231 L173.011834,149.269231 L173.011834,271 L333.95858,271 L333.95858,149.269231 L209.224852,149.269231 L209.224852,112.75 Z" id="Logo" sketch:type="MSShapeGroup"></path>
            </g>
        </g>
    </g>
</svg>